<svg width="21" height="20" viewBox="0 0 21 20" fill="none" xmlns="http://www.w3.org/2000/svg">
<path d="M16.2761 19.9188C16.1469 19.9212 16.0193 19.8901 15.9065 19.8287L10.5101 17.1235L5.76065 19.5582C4.9769 19.9651 4.00351 19.6793 3.57995 18.9179C3.41513 18.6106 3.35678 18.2594 3.41362 17.917L4.33765 12.723L0.475214 8.99885C0.171064 8.70426 0 8.30338 0 7.8852C0 7.46702 0.171064 7.06614 0.475214 6.77156C0.722755 6.52448 1.04817 6.3657 1.39924 6.3207L6.69392 5.55422L9.05019 0.88324C9.31923 0.34296 9.88075 0 10.4963 0C11.1118 0 11.6734 0.34296 11.9424 0.88324L14.3079 5.57226L19.6211 6.34775C20.0479 6.40766 20.4323 6.63243 20.6877 6.97156C20.9431 7.31068 21.0482 7.73573 20.9794 8.15122C20.9293 8.49261 20.7672 8.80898 20.5174 9.05295L16.6734 12.732L17.2093 15.5274C17.2819 15.9529 16.9888 16.3557 16.5533 16.4291C16.1252 16.5063 15.7132 16.2328 15.6293 15.816L15.0841 13.0206C14.9931 12.5062 15.1656 11.9808 15.5461 11.6139L19.3993 7.90775L14.0861 7.12324C13.5517 7.04315 13.0957 6.70344 12.8757 6.2215L10.5101 1.55052L8.11692 6.29364C7.89686 6.77558 7.44084 7.11529 6.90644 7.19538L1.61177 7.96185L5.43724 11.659C5.816 12.0195 5.98877 12.5388 5.89925 13.0476L4.97523 18.2416L9.72473 15.816C10.1969 15.5641 10.7679 15.5641 11.2401 15.816L16.6272 18.5212C16.9537 18.6887 17.1215 19.0516 17.034 19.4014C16.9466 19.7512 16.6265 19.998 16.2576 20L16.2761 19.9188Z" fill="#161616"/>
</svg>
