<svg width="27" height="24" viewBox="0 0 27 24" fill="none" xmlns="http://www.w3.org/2000/svg">
<path d="M19.988 8C19.988 6.4087 19.2931 4.88258 18.056 3.75736C16.8189 2.63214 15.1411 2 13.3916 2C11.6422 2 9.96436 2.63214 8.7273 3.75736C7.49024 4.88258 6.79526 6.4087 6.79526 8C6.79526 15 3.49707 17 3.49707 17H23.2862C23.2862 17 19.988 15 19.988 8Z" stroke="#2A2A2A" stroke-width="2" stroke-linecap="round" stroke-linejoin="round"/>
<path d="M15.2941 21C15.1009 21.3031 14.8234 21.5547 14.4896 21.7295C14.1558 21.9044 13.7774 21.9965 13.3922 21.9965C13.007 21.9965 12.6285 21.9044 12.2947 21.7295C11.9609 21.5547 11.6835 21.3031 11.4902 21" stroke="#2A2A2A" stroke-width="2" stroke-linecap="round" stroke-linejoin="round"/>
</svg>
