<svg width="25" height="25" viewBox="0 0 25 25" fill="none" xmlns="http://www.w3.org/2000/svg">
<path fill-rule="evenodd" clip-rule="evenodd" d="M8.59376 9.37492C8.59376 7.21756 10.3426 5.46867 12.5 5.46867C14.6574 5.46867 16.4063 7.21756 16.4063 9.37492C16.4063 11.5323 14.6574 13.2812 12.5 13.2812C10.3426 13.2812 8.59376 11.5323 8.59376 9.37492ZM12.5 7.03117C11.2056 7.03117 10.1563 8.0805 10.1563 9.37492C10.1563 10.6693 11.2056 11.7187 12.5 11.7187C13.7944 11.7187 14.8438 10.6693 14.8438 9.37492C14.8438 8.0805 13.7944 7.03117 12.5 7.03117Z" fill="#A9A9A9"/>
<path fill-rule="evenodd" clip-rule="evenodd" d="M1.30209 12.4999C1.30209 6.31548 6.31557 1.302 12.5 1.302C18.6844 1.302 23.6979 6.31548 23.6979 12.4999C23.6979 18.6844 18.6844 23.6978 12.5 23.6978C6.31557 23.6978 1.30209 18.6844 1.30209 12.4999ZM12.5 2.8645C7.17852 2.8645 2.86459 7.17842 2.86459 12.4999C2.86459 15.1516 3.93571 17.553 5.66887 19.2953C5.85678 18.2816 6.22599 17.3258 6.96706 16.5573C8.07556 15.4077 9.8481 14.8437 12.5 14.8437C15.1518 14.8437 16.9244 15.4077 18.0329 16.5573C18.7739 17.3259 19.1432 18.2816 19.3311 19.2954C21.0643 17.5531 22.1354 15.1516 22.1354 12.4999C22.1354 7.17842 17.8215 2.8645 12.5 2.8645ZM17.9101 20.4743C17.804 19.2119 17.5298 18.2867 16.9081 17.6419C16.2316 16.9403 14.978 16.4062 12.5 16.4062C10.0219 16.4062 8.76836 16.9403 8.09183 17.6419C7.47008 18.2867 7.19596 19.2118 7.08983 20.4742C8.63214 21.5226 10.4945 22.1353 12.5 22.1353C14.5055 22.1353 16.3678 21.5227 17.9101 20.4743Z" fill="#A9A9A9"/>
</svg>
