<svg width="22" height="22" viewBox="0 0 22 22" fill="none" xmlns="http://www.w3.org/2000/svg">
<path fill-rule="evenodd" clip-rule="evenodd" d="M10.75 4.49958e-07L10.6926 2.1154e-07C8.38423 -1.26631e-05 6.57519 -2.28584e-05 5.16371 0.189747C3.71897 0.383986 2.57895 0.789327 1.68414 1.68414C0.789327 2.57895 0.383986 3.71897 0.189747 5.16371C-2.28435e-05 6.57519 -1.26561e-05 8.38423 2.1847e-07 10.6926L4.64121e-05 11.2412C0.000814358 13.3351 0.012565 15.0184 0.189747 16.3363C0.383986 17.781 0.789327 18.9211 1.68414 19.8159C2.57895 20.7107 3.71897 21.116 5.16371 21.3103C6.57519 21.5 8.38423 21.5 10.6926 21.5H10.8074C13.1158 21.5 14.9248 21.5 16.3363 21.3103C17.781 21.116 18.9211 20.7107 19.8159 19.8159C20.7107 18.9211 21.116 17.781 21.3103 16.3363C21.5 14.9248 21.5 13.1158 21.5 10.8074V10.75C21.5 10.3358 21.1642 10 20.75 10C20.3358 10 20 10.3358 20 10.75C20 13.1282 19.9984 14.8364 19.8236 16.1364C19.8167 16.1878 19.8096 16.2383 19.8022 16.2881L17.0282 13.7915C15.7288 12.622 13.7937 12.5055 12.3634 13.5107L12.0652 13.7203C11.5682 14.0696 10.8921 14.011 10.4625 13.5815L6.17282 9.29177C5.03741 8.15636 3.21613 8.09572 2.00771 9.15308L1.50098 9.59647C1.50552 7.80407 1.53124 6.44307 1.67637 5.36358C1.84825 4.08517 2.17514 3.31445 2.7448 2.7448C3.31445 2.17514 4.08517 1.84825 5.36358 1.67637C6.66356 1.50159 8.37177 1.5 10.75 1.5C11.1642 1.5 11.5 1.16421 11.5 0.75C11.5 0.335787 11.1642 4.49958e-07 10.75 4.49958e-07ZM19.3595 17.8906C19.3206 17.8668 19.2834 17.8392 19.2483 17.8076L16.0247 14.9064C15.2451 14.2047 14.084 14.1349 13.2258 14.738L12.9276 14.9475C11.8343 15.7159 10.3468 15.5871 9.40188 14.6422L5.11216 10.3524C4.53515 9.77542 3.60958 9.7446 2.99546 10.2819L1.50038 11.5901C1.50296 13.5385 1.52289 14.9949 1.67637 16.1364C1.84825 17.4148 2.17514 18.1855 2.7448 18.7552C3.31445 19.3249 4.08517 19.6518 5.36358 19.8236C6.66356 19.9984 8.37177 20 10.75 20C13.1282 20 14.8364 19.9984 16.1364 19.8236C17.4148 19.6518 18.1855 19.3249 18.7552 18.7552C18.9987 18.5117 19.1978 18.2315 19.3595 17.8906Z" fill="#A9A9A9"/>
<path fill-rule="evenodd" clip-rule="evenodd" d="M21.5 4.1254C21.5 2.71615 20.8197 1.57878 19.684 1.16077C18.7443 0.814864 17.6834 1.03181 16.75 1.72655C15.8166 1.03181 14.7557 0.814864 13.816 1.16077C12.6803 1.57879 12 2.71616 12 4.12541C12 4.91255 12.3577 5.64306 12.7859 6.24718C13.2212 6.86136 13.7847 7.42228 14.3185 7.88604L14.4033 7.95986C15.1213 8.58502 15.7193 9.10564 16.75 9.10564C17.7807 9.10564 18.3787 8.58503 19.0967 7.95987L19.1815 7.88605C19.7154 7.42229 20.2788 6.86137 20.7141 6.24719C21.1423 5.64306 21.5 4.91255 21.5 4.1254ZM19.1659 2.56844C18.7397 2.41155 18.0367 2.48783 17.2817 3.24679C17.141 3.38831 16.9496 3.46788 16.75 3.46788C16.5504 3.46788 16.359 3.38831 16.2183 3.24679C15.4633 2.48783 14.7603 2.41155 14.3341 2.56844C13.9197 2.72095 13.5 3.19214 13.5 4.12541C13.5 4.46639 13.6626 4.89016 14.0097 5.37976C14.3496 5.8593 14.8163 6.33155 15.3022 6.75368C16.1351 7.47727 16.3262 7.60564 16.75 7.60564C17.1739 7.60564 17.3649 7.47727 18.1978 6.75369C18.6837 6.33156 19.1504 5.85932 19.4903 5.37978C19.8374 4.89018 20 4.4664 20 4.1254C20 3.19213 19.5803 2.72095 19.1659 2.56844Z" fill="#A9A9A9"/>
</svg>
