<svg width="18" height="19" viewBox="0 0 18 19" fill="none" xmlns="http://www.w3.org/2000/svg">
<path d="M13.5482 12.5126C13.3577 12.3246 13.1007 12.2191 12.8329 12.2191H12.5449C12.4688 12.2191 12.3957 12.19 12.3406 12.1376C12.2253 12.0281 12.2174 11.8476 12.3168 11.7235C13.2297 10.5842 13.7726 9.14847 13.7726 7.59494C13.7726 3.90585 10.736 0.915527 6.98985 0.915527C3.24372 0.915527 0.207153 3.90585 0.207153 7.59494C0.207153 11.284 3.24372 14.2743 6.98985 14.2743C8.56936 14.2743 10.029 13.7384 11.1865 12.8374C11.311 12.7405 11.4893 12.7483 11.5997 12.861C11.6547 12.9172 11.6856 12.9928 11.6856 13.0715V13.3491C11.6856 13.6123 11.7913 13.8645 11.979 14.0489L16.1368 18.1352C16.562 18.5531 17.2437 18.5528 17.6685 18.1345C18.1026 17.707 18.1029 17.007 17.6693 16.5791L13.5482 12.5126ZM6.98985 12.2191C4.39156 12.2191 2.29414 10.1537 2.29414 7.59494C2.29414 5.03621 4.39156 2.97073 6.98985 2.97073C9.58815 2.97073 11.6856 5.03621 11.6856 7.59494C11.6856 10.1537 9.58815 12.2191 6.98985 12.2191Z" fill="#A4A4A4"/>
</svg>
