<svg width="20" height="20" viewBox="0 0 20 20" fill="none" xmlns="http://www.w3.org/2000/svg">
<path d="M18.032 4.81774L12.2777 0.78774C10.7093 -0.31226 8.3017 -0.252259 6.79321 0.917741L1.78821 4.82774C0.789211 5.60774 0 7.20774 0 8.46774V15.3677C0 17.9177 2.06793 19.9977 4.61538 19.9977H15.3846C17.9321 19.9977 20 17.9277 20 15.3777V8.59774C20 7.24774 19.1309 5.58774 18.032 4.81774ZM10.7493 15.9977C10.7493 16.4077 10.4096 16.7477 10 16.7477C9.59041 16.7477 9.25075 16.4077 9.25075 15.9977V12.9977C9.25075 12.5877 9.59041 12.2477 10 12.2477C10.4096 12.2477 10.7493 12.5877 10.7493 12.9977V15.9977Z" fill="#F36523"/>
</svg>
